<?xml version="1.0" encoding="UTF-8"?>
<svg id="Camada_1" xmlns="http://www.w3.org/2000/svg" version="1.1" viewBox="0 0 1938.9 637.2">
  <!-- Generator: Adobe Illustrator 30.2.1, SVG Export Plug-In . SVG Version: 2.1.1 Build 1)  -->
  <defs>
    <style>
      .st0 {
        fill: #fff;
      }
    </style>
  </defs>
  <path class="st0" d="M628.7,158.9c1.2-11.1-2.8-21.9-13.6-28.2-11.9-7-31.9-4.2-39,8.9-10.4,12.2-19.4,24.1-26.5,38.8-12.5,25.7-23.6,52-35.1,78.1-17.3,39-34.5,78-51.8,117.1-26.7-74.7-62.8-147.1-104.5-212.5-30.7-48.2-80.8-96.2-142.9-75.9-53,17.3-84.6,69.7-101.8,119.6-19.8,57.8-22.3,124.2-4.9,182.9,23.6,79.6,83,137.1,160.5,164.7,15.4,5.5,33.1-6.2,37.2-21.2,4.7-17-5.8-31.5-21.1-37.2-27.8-10.4-51-25.2-70.7-46.3-9.9-10.6-13.1-14.9-21.1-28.5-3.4-5.7-6.4-11.6-9.2-17.5-.6-1.1-1.1-2.3-1.6-3.5-1.5-3.7-2.8-7.4-4.1-11.1-4.4-12.9-7.3-26-9.6-39.3-.1-.6-.2-1-.2-1.4,0-.4,0-.8-.1-1.4-.3-3-.6-5.9-.8-8.9-.6-6.9-.9-13.8-1-20.8,0-6.4.1-12.8.5-19.2.2-3.4.5-6.8.8-10.2.1-1,.6-5,.8-6.9.3-1.7.7-4.6.8-5.3.6-3.3,1.2-6.6,1.8-9.8,1.3-6.4,2.9-12.8,4.6-19.2,1.5-5.3,3.1-10.6,4.9-15.8,1-3,2.2-5.9,3.2-8.9.2-.7.4-1.1.5-1.6.1-.2.2-.5.4-.8,4.8-10.3,9.9-20.3,16-29.8,1.8-2.8,8.8-11.9,6.3-9.1,2.7-3.2,5.4-6.4,8.4-9.4,1.3-1.3,5.1-4.6,7-6.4,2.1-1.3,7.2-4.7,8.8-5.6.8-.5,1.3-.8,1.7-1.1.4-.1.9-.2,1.5-.4,1.7-.5,3.5-.9,5.2-1.4,2.2.4,6.3.3,9,.1,1.8.6,3.9,1.3,5.8,1.8,1.9,1.3,4.1,2.2,6.1,3.4,1.4.9,2.7,1.8,4.1,2.7,1.1.9,2.2,1.9,3.3,2.9,4.1,4,8.1,8.1,11.9,12.5.7.8,1.5,1.8,2.1,2.6,1.9,2.7,3.8,5.4,5.7,8.1,60.7,91.4,107.5,199.6,130.4,307,6.5,30.7,56.8,39.4,70.4,9.2,44.3-98.5,90-197.1,129.8-297.5,5.6-14.1,11.6-32.3,10.3-48.5h0ZM248.4,154.5s0,0,.1,0c-3-.3-4.6-1.7-.1,0ZM282.9,181.5c.4.5.5.6,0,0h0Z"/>
  <path class="st0" d="M957.5,360.2c-12.7-39.2-24.8-78.5-36.6-118-11.7-39-19.8-82.7-39.3-118.7-15.7-28.8-56-13.4-58,15.7-2.8,39.6,12.1,83.1,22.4,121,10.6,38.7,22.3,77,34.5,115.2-31-14.1-64.7-22.6-98.9-24.8-36.4-2.3-71.6,3.7-103.8,16.5,25.1-62.1,49.7-124.5,73.1-187.3,11.8-31.7-40.5-54.1-55-23.2-49.6,105.5-95.5,212.6-141.8,319.6-7.9,18.3-5.4,39.7,13.3,50.6,17.4,10.2,40.5,4,50.7-13.3,19.2-32.5,42.5-54.9,75.8-71,25.6-12.4,54.9-17.1,87.9-14.8,26.5,1.9,58.8,12,84.3,27.2,27.4,16.3,48.3,37.5,64.2,66,21.2,37.9,86.9,12.4,71.7-30.2-15.5-43.3-30-87-44.2-130.7h0Z"/>
  <path class="st0" d="M1818.2,252.9c-23.6-79.6-83-137.1-160.5-164.7-15.4-5.5-33.1,6.2-37.2,21.2-4.7,17,5.8,31.5,21.2,37.3,27.8,10.4,51,25.2,70.7,46.3,9.9,10.6,13.1,14.9,21.1,28.5,3.4,5.7,6.4,11.6,9.2,17.6.6,1.1,1.1,2.3,1.6,3.5,1.5,3.7,2.8,7.4,4.1,11.1,4.3,12.8,7.3,26,9.6,39.3.1.6.2,1,.2,1.4,0,.4,0,.8.1,1.4.3,3,.6,5.9.8,8.9.6,6.9.9,13.8,1,20.8,0,6.4-.1,12.8-.5,19.2-.2,3.4-.5,6.8-.8,10.2,0,1-.6,5-.8,6.9-.3,1.7-.7,4.6-.8,5.3-.6,3.3-1.2,6.6-1.8,9.8-1.3,6.4-2.9,12.8-4.6,19.2-1.5,5.3-3.1,10.6-4.9,15.8-1,3-2.2,5.9-3.2,8.9-.2.7-.4,1.1-.5,1.6-.1.2-.2.5-.4.8-4.8,10.3-9.9,20.3-16,29.8-1.8,2.8-8.8,11.9-6.3,9-2.7,3.2-5.4,6.4-8.4,9.4-1.3,1.3-5.1,4.6-7,6.4-2.1,1.3-7.2,4.7-8.8,5.6-.8.5-1.3.8-1.7,1.1-.4.1-.9.2-1.5.4-1.7.5-3.5.9-5.2,1.4-2.2-.4-6.3-.3-9-.1-1.8-.6-3.9-1.3-5.8-1.8-1.9-1.3-4.1-2.2-6.1-3.4-1.4-.9-2.7-1.8-4.1-2.7-1.1-.9-2.2-1.9-3.3-2.9-4.2-4-8.1-8.1-11.9-12.5-.7-.8-1.5-1.8-2.1-2.6-1.9-2.7-3.8-5.4-5.7-8.1-60.7-91.4-107.5-199.6-130.4-307-6.5-30.7-56.8-39.4-70.4-9.2-44.3,98.5-90,197.1-129.8,297.5-5.6,14.1-11.6,32.3-10.3,48.5-1.2,11,2.8,21.9,13.6,28.2,11.9,7,31.9,4.2,39-8.9,10.4-12.2,19.4-24.1,26.5-38.8,12.5-25.7,23.6-52,35.1-78.1,17.3-39,34.5-78.1,51.8-117.1,26.7,74.7,62.8,147.1,104.4,212.5,30.7,48.2,80.8,96.2,142.9,75.9,53-17.3,84.6-69.7,101.8-119.6,19.8-57.8,22.3-124.2,4.9-182.9h0ZM1643.9,459.1c-.4-.5-.5-.6,0,0h0ZM1678.4,486.2s0,0-.1,0c3,.3,4.7,1.7.1,0Z"/>
  <path class="st0" d="M1359.5,113.7c-17.4-10.2-40.5-4-50.7,13.3-19.2,32.5-42.5,54.9-75.8,71-25.6,12.4-54.9,17.1-87.9,14.8-26.4-1.9-58.8-12.1-84.3-27.2-27.4-16.3-48.3-37.6-64.2-66-21.2-37.9-86.9-12.4-71.7,30.2,15.5,43.3,30,87,44.2,130.7,12.7,39.2,24.8,78.5,36.6,118,11.7,39,19.8,82.7,39.3,118.7,15.7,28.8,56,13.4,58-15.7,2.8-39.6-12.1-83.1-22.4-121-10.6-38.7-22.3-77-34.5-115.2,31,14.1,64.7,22.6,98.9,24.8,36.4,2.3,71.6-3.7,103.8-16.5-25.1,62.1-49.7,124.5-73.1,187.3-11.8,31.7,40.5,54.1,55,23.2,49.6-105.5,95.6-212.6,141.8-319.6,7.9-18.3,5.4-39.7-13.3-50.7h0Z"/>
</svg>