<?xml version="1.0" encoding="UTF-8"?>
<svg id="Camada_1" data-name="Camada 1" xmlns="http://www.w3.org/2000/svg" viewBox="0 0 1938.9 637.23">
  <defs>
    <style>
      .cls-1 {
        fill: #1d1d1b;
      }
    </style>
  </defs>
  <path class="cls-1" d="M628.68,158.89c1.21-11.05-2.76-21.92-13.59-28.25-11.91-6.97-31.88-4.21-39.03,8.91-10.37,12.17-19.36,24.13-26.49,38.82-12.46,25.67-23.59,52.04-35.14,78.13-17.27,39.03-34.54,78.05-51.82,117.08-26.66-74.66-62.76-147.07-104.45-212.52-30.68-48.17-80.76-96.17-142.93-75.86-52.98,17.31-84.62,69.66-101.75,119.62-19.83,57.82-22.34,124.19-4.92,182.91,23.6,79.55,83.01,137.13,160.48,164.73,15.41,5.49,33.14-6.21,37.25-21.15,4.66-16.96-5.77-31.51-21.15-37.25-27.84-10.39-51-25.19-70.69-46.27-9.92-10.62-13.1-14.9-21.12-28.49-3.37-5.7-6.36-11.59-9.23-17.55-.55-1.14-1.07-2.31-1.58-3.47-1.47-3.66-2.83-7.36-4.1-11.1-4.35-12.85-7.34-25.99-9.64-39.34-.11-.62-.18-1.05-.25-1.4-.03-.35-.07-.77-.13-1.37-.29-2.96-.59-5.92-.83-8.89-.56-6.91-.91-13.83-.98-20.77-.06-6.4.11-12.79.48-19.18.2-3.42.46-6.83.78-10.24.1-1.04.56-4.98.76-6.89.27-1.69.71-4.59.83-5.33.56-3.29,1.17-6.57,1.84-9.84,1.33-6.44,2.87-12.83,4.64-19.16,1.48-5.3,3.12-10.57,4.92-15.77,1.03-2.98,2.22-5.9,3.25-8.87.23-.66.4-1.15.53-1.57.11-.22.24-.49.39-.83,4.75-10.29,9.89-20.3,16.03-29.84,1.79-2.79,8.78-11.9,6.27-9.05,2.71-3.23,5.44-6.41,8.42-9.41,1.29-1.29,5.08-4.6,7.04-6.36,2.07-1.26,7.21-4.68,8.75-5.62.76-.46,1.27-.81,1.69-1.1.41-.1.91-.22,1.51-.38,1.71-.46,3.49-.91,5.21-1.43,2.2.38,6.26.33,9.01.14,1.79.65,3.89,1.34,5.79,1.79,1.87,1.29,4.14,2.19,6.07,3.39,1.39.86,2.72,1.8,4.06,2.73,1.11.93,2.22,1.86,3.26,2.87,4.15,4.02,8.12,8.11,11.92,12.48.66.76,1.45,1.77,2.09,2.6,1.93,2.69,3.83,5.39,5.67,8.15,60.73,91.38,107.52,199.63,130.37,306.97,6.54,30.7,56.83,39.44,70.42,9.2,44.26-98.48,90.01-197.1,129.8-297.47,5.58-14.08,11.59-32.33,10.28-48.5ZM248.39,154.47s.09.03.13.05c-2.96-.32-4.65-1.71-.13-.05ZM282.88,181.52c.38.51.47.64,0,0h0Z"/>
  <path class="cls-1" d="M957.53,360.22c-12.66-39.18-24.83-78.54-36.63-117.99-11.68-39.04-19.77-82.72-39.33-118.66-15.65-28.77-55.96-13.4-57.98,15.7-2.75,39.59,12.06,83.12,22.39,120.99,10.56,38.68,22.3,76.99,34.48,115.18-31-14.11-64.72-22.59-98.92-24.76-36.37-2.31-71.61,3.66-103.85,16.5,25.09-62.14,49.72-124.46,73.08-187.27,11.8-31.72-40.51-54.09-55.04-23.21-49.63,105.47-95.55,212.61-141.78,319.61-7.92,18.34-5.43,39.71,13.28,50.65,17.38,10.16,40.47,3.99,50.65-13.28,19.15-32.49,42.51-54.92,75.8-70.99,25.63-12.37,54.87-17.07,87.86-14.76,26.45,1.85,58.79,12.05,84.29,27.23,27.43,16.33,48.27,37.55,64.15,65.99,21.18,37.94,86.93,12.42,71.71-30.23-15.46-43.31-30.03-86.96-44.17-130.71Z"/>
  <path class="cls-1" d="M1818.19,252.9c-23.6-79.55-83.01-137.13-160.48-164.73-15.41-5.49-33.14,6.21-37.25,21.15-4.66,16.96,5.77,31.51,21.15,37.25,27.84,10.39,51,25.19,70.69,46.27,9.92,10.62,13.1,14.9,21.12,28.49,3.37,5.7,6.36,11.59,9.23,17.55.55,1.14,1.07,2.31,1.58,3.47,1.47,3.66,2.83,7.36,4.1,11.1,4.35,12.85,7.34,25.99,9.64,39.34.11.62.18,1.05.25,1.4.03.35.07.77.13,1.38.29,2.96.59,5.92.83,8.89.56,6.91.91,13.83.98,20.77.06,6.4-.11,12.79-.48,19.18-.2,3.42-.46,6.83-.78,10.24-.1,1.04-.56,4.98-.76,6.89-.27,1.69-.71,4.59-.83,5.33-.56,3.29-1.17,6.57-1.84,9.84-1.33,6.44-2.87,12.83-4.64,19.16-1.48,5.3-3.12,10.57-4.92,15.77-1.03,2.98-2.22,5.9-3.25,8.87-.23.66-.4,1.15-.53,1.57-.11.22-.24.49-.39.83-4.75,10.29-9.89,20.3-16.03,29.84-1.79,2.79-8.78,11.89-6.27,9.05-2.71,3.23-5.44,6.41-8.42,9.4-1.29,1.29-5.08,4.6-7.04,6.36-2.07,1.26-7.21,4.68-8.75,5.62-.76.46-1.27.81-1.69,1.1-.41.1-.91.22-1.51.38-1.71.46-3.49.91-5.21,1.43-2.2-.38-6.26-.33-9.01-.14-1.79-.65-3.89-1.34-5.79-1.79-1.87-1.29-4.14-2.19-6.07-3.39-1.39-.86-2.72-1.8-4.06-2.73-1.11-.93-2.22-1.86-3.26-2.87-4.15-4.02-8.12-8.11-11.92-12.48-.66-.76-1.46-1.77-2.09-2.6-1.93-2.69-3.83-5.39-5.67-8.15-60.73-91.38-107.52-199.63-130.37-306.97-6.54-30.7-56.83-39.44-70.42-9.2-44.27,98.48-90.01,197.1-129.81,297.47-5.58,14.08-11.59,32.33-10.28,48.5-1.21,11.05,2.76,21.92,13.59,28.25,11.91,6.97,31.88,4.21,39.03-8.91,10.37-12.17,19.36-24.13,26.49-38.82,12.46-25.67,23.59-52.04,35.14-78.13,17.27-39.03,34.54-78.05,51.82-117.08,26.66,74.66,62.76,147.07,104.45,212.52,30.68,48.17,80.76,96.17,142.93,75.86,52.98-17.31,84.62-69.66,101.75-119.62,19.83-57.82,22.34-124.19,4.92-182.91ZM1643.87,459.12c-.38-.51-.47-.64,0,0h0ZM1678.37,486.17s-.09-.03-.13-.05c2.96.32,4.65,1.71.13.05Z"/>
  <path class="cls-1" d="M1359.52,113.66c-17.38-10.16-40.47-4-50.65,13.28-19.15,32.49-42.51,54.92-75.8,70.99-25.63,12.37-54.87,17.07-87.86,14.76-26.45-1.85-58.79-12.05-84.29-27.23-27.43-16.33-48.27-37.55-64.15-65.99-21.18-37.94-86.93-12.42-71.71,30.23,15.46,43.31,30.03,86.96,44.17,130.71,12.66,39.18,24.83,78.54,36.63,117.99,11.68,39.04,19.77,82.72,39.33,118.66,15.65,28.77,55.96,13.4,57.98-15.7,2.75-39.59-12.06-83.12-22.39-120.99-10.56-38.68-22.3-76.99-34.48-115.18,31,14.11,64.72,22.59,98.92,24.76,36.37,2.31,71.61-3.66,103.85-16.5-25.09,62.14-49.72,124.46-73.08,187.27-11.8,31.72,40.51,54.09,55.04,23.21,49.63-105.47,95.55-212.61,141.78-319.61,7.92-18.34,5.43-39.71-13.28-50.65Z"/>
</svg>